# xmcd CD database file
#
# Track frame offsets:
#	150
#	17581
#	37746
#	53982
#	68194
#	86575
#	105716
#	126361
#	145220
#	164399
#	183209
#	203959
#	222435
#	240176
#	258697
#
# Disc length: 3716 seconds
#
# Revision: 0
# Processed by: cddbd v1.5.1PL0 Copyright (c) Steve Scherf et al.
# Submitted via: CDex 1.51
#
DISCID=d20e820f
DTITLE=smily slayers - SMILY SLAYERS Best shit issue 2 Disc1
DYEAR=2005
DGENRE=Hardcore
TTITLE0=silent matanity
TTITLE1=ROTTERDAMN
TTITLE2=FRD
TTITLE3=if the truth be known
TTITLE4=RD
TTITLE5=ih0
TTITLE6=ih1
TTITLE7=ih2
TTITLE8=ih8
TTITLE9=ih9
TTITLE10=pesimistic poet
TTITLE11=NO KARAOKIZM
TTITLE12=GGG
TTITLE13=AO8
TTITLE14=HYSTERIA
EXTD=YEAR: 2005
EXTT0=
EXTT1=
EXTT2=
EXTT3=
EXTT4=
EXTT5=
EXTT6=
EXTT7=
EXTT8=
EXTT9=
EXTT10=
EXTT11=
EXTT12=
EXTT13=
EXTT14=
PLAYORDER=
